<mxfile host="app.diagrams.net" modified="2022-04-04T18:07:19.846Z" agent="5.0 (Windows NT 10.0; Win64; x64) AppleWebKit/537.36 (KHTML, like Gecko) Chrome/99.0.4844.84 Safari/537.36" etag="JwS-M-FKJqwYTUw3E8JN" version="17.4.0" type="github" pages="5">
  <diagram id="b0Tjl1qEEuP9wBJ00qm7" name="Page-1">
    <mxGraphModel dx="2105" dy="500" grid="1" gridSize="10" guides="1" tooltips="1" connect="1" arrows="1" fold="1" page="1" pageScale="1" pageWidth="827" pageHeight="1169" math="0" shadow="0">
      <root>
        <mxCell id="0" />
        <mxCell id="1" parent="0" />
        <mxCell id="pButbFu6PwKA1ap9V0wM-2" value="" style="ellipse;html=1;shape=startState;fillColor=#000000;strokeColor=#ff0000;" parent="1" vertex="1">
          <mxGeometry x="90" y="30" width="30" height="30" as="geometry" />
        </mxCell>
        <mxCell id="pButbFu6PwKA1ap9V0wM-3" value="" style="edgeStyle=orthogonalEdgeStyle;html=1;verticalAlign=bottom;endArrow=open;endSize=8;strokeColor=#ff0000;rounded=0;" parent="1" source="pButbFu6PwKA1ap9V0wM-2" target="pButbFu6PwKA1ap9V0wM-4" edge="1">
          <mxGeometry relative="1" as="geometry">
            <mxPoint x="125" y="390" as="targetPoint" />
          </mxGeometry>
        </mxCell>
        <mxCell id="pButbFu6PwKA1ap9V0wM-6" style="edgeStyle=orthogonalEdgeStyle;rounded=0;orthogonalLoop=1;jettySize=auto;html=1;exitX=0.5;exitY=1;exitDx=0;exitDy=0;" parent="1" source="pButbFu6PwKA1ap9V0wM-4" target="pButbFu6PwKA1ap9V0wM-5" edge="1">
          <mxGeometry relative="1" as="geometry" />
        </mxCell>
        <mxCell id="pButbFu6PwKA1ap9V0wM-4" value="Login" style="rounded=1;whiteSpace=wrap;html=1;" parent="1" vertex="1">
          <mxGeometry x="260" y="15" width="120" height="60" as="geometry" />
        </mxCell>
        <mxCell id="pButbFu6PwKA1ap9V0wM-12" style="edgeStyle=orthogonalEdgeStyle;rounded=0;orthogonalLoop=1;jettySize=auto;html=1;exitX=0.5;exitY=1;exitDx=0;exitDy=0;entryX=0.5;entryY=0;entryDx=0;entryDy=0;" parent="1" source="pButbFu6PwKA1ap9V0wM-5" target="pButbFu6PwKA1ap9V0wM-9" edge="1">
          <mxGeometry relative="1" as="geometry" />
        </mxCell>
        <mxCell id="pButbFu6PwKA1ap9V0wM-13" style="edgeStyle=orthogonalEdgeStyle;rounded=0;orthogonalLoop=1;jettySize=auto;html=1;exitX=0.5;exitY=1;exitDx=0;exitDy=0;entryX=0.5;entryY=0;entryDx=0;entryDy=0;" parent="1" source="pButbFu6PwKA1ap9V0wM-5" target="pButbFu6PwKA1ap9V0wM-8" edge="1">
          <mxGeometry relative="1" as="geometry" />
        </mxCell>
        <mxCell id="pButbFu6PwKA1ap9V0wM-14" style="edgeStyle=orthogonalEdgeStyle;rounded=0;orthogonalLoop=1;jettySize=auto;html=1;exitX=0.5;exitY=1;exitDx=0;exitDy=0;entryX=0.5;entryY=0;entryDx=0;entryDy=0;" parent="1" source="pButbFu6PwKA1ap9V0wM-5" target="pButbFu6PwKA1ap9V0wM-10" edge="1">
          <mxGeometry relative="1" as="geometry" />
        </mxCell>
        <mxCell id="pButbFu6PwKA1ap9V0wM-15" style="edgeStyle=orthogonalEdgeStyle;rounded=0;orthogonalLoop=1;jettySize=auto;html=1;exitX=0.5;exitY=1;exitDx=0;exitDy=0;" parent="1" source="pButbFu6PwKA1ap9V0wM-5" target="pButbFu6PwKA1ap9V0wM-11" edge="1">
          <mxGeometry relative="1" as="geometry" />
        </mxCell>
        <mxCell id="pButbFu6PwKA1ap9V0wM-16" style="edgeStyle=orthogonalEdgeStyle;rounded=0;orthogonalLoop=1;jettySize=auto;html=1;exitX=0.5;exitY=1;exitDx=0;exitDy=0;entryX=0.5;entryY=0;entryDx=0;entryDy=0;" parent="1" source="pButbFu6PwKA1ap9V0wM-5" target="pButbFu6PwKA1ap9V0wM-7" edge="1">
          <mxGeometry relative="1" as="geometry" />
        </mxCell>
        <mxCell id="pButbFu6PwKA1ap9V0wM-5" value="Check Username and Password" style="rounded=1;whiteSpace=wrap;html=1;" parent="1" vertex="1">
          <mxGeometry x="260" y="130" width="120" height="60" as="geometry" />
        </mxCell>
        <mxCell id="pButbFu6PwKA1ap9V0wM-23" style="edgeStyle=orthogonalEdgeStyle;rounded=0;orthogonalLoop=1;jettySize=auto;html=1;exitX=0.5;exitY=1;exitDx=0;exitDy=0;entryX=0.5;entryY=0;entryDx=0;entryDy=0;" parent="1" source="pButbFu6PwKA1ap9V0wM-7" target="pButbFu6PwKA1ap9V0wM-17" edge="1">
          <mxGeometry relative="1" as="geometry" />
        </mxCell>
        <mxCell id="pButbFu6PwKA1ap9V0wM-7" value="Check Permission" style="rhombus;whiteSpace=wrap;html=1;" parent="1" vertex="1">
          <mxGeometry y="260" width="80" height="80" as="geometry" />
        </mxCell>
        <mxCell id="pButbFu6PwKA1ap9V0wM-24" style="edgeStyle=orthogonalEdgeStyle;rounded=0;orthogonalLoop=1;jettySize=auto;html=1;exitX=0.5;exitY=1;exitDx=0;exitDy=0;entryX=0.5;entryY=0;entryDx=0;entryDy=0;" parent="1" source="pButbFu6PwKA1ap9V0wM-8" target="pButbFu6PwKA1ap9V0wM-18" edge="1">
          <mxGeometry relative="1" as="geometry" />
        </mxCell>
        <mxCell id="pButbFu6PwKA1ap9V0wM-8" value="Check Permission" style="rhombus;whiteSpace=wrap;html=1;" parent="1" vertex="1">
          <mxGeometry x="140" y="260" width="80" height="80" as="geometry" />
        </mxCell>
        <mxCell id="pButbFu6PwKA1ap9V0wM-25" style="edgeStyle=orthogonalEdgeStyle;rounded=0;orthogonalLoop=1;jettySize=auto;html=1;exitX=0.5;exitY=1;exitDx=0;exitDy=0;entryX=0.5;entryY=0;entryDx=0;entryDy=0;" parent="1" source="pButbFu6PwKA1ap9V0wM-9" target="pButbFu6PwKA1ap9V0wM-20" edge="1">
          <mxGeometry relative="1" as="geometry" />
        </mxCell>
        <mxCell id="pButbFu6PwKA1ap9V0wM-9" value="Check Permission" style="rhombus;whiteSpace=wrap;html=1;" parent="1" vertex="1">
          <mxGeometry x="280" y="260" width="80" height="80" as="geometry" />
        </mxCell>
        <mxCell id="pButbFu6PwKA1ap9V0wM-26" style="edgeStyle=orthogonalEdgeStyle;rounded=0;orthogonalLoop=1;jettySize=auto;html=1;exitX=0.5;exitY=1;exitDx=0;exitDy=0;entryX=0.5;entryY=0;entryDx=0;entryDy=0;entryPerimeter=0;" parent="1" source="pButbFu6PwKA1ap9V0wM-10" target="pButbFu6PwKA1ap9V0wM-21" edge="1">
          <mxGeometry relative="1" as="geometry" />
        </mxCell>
        <mxCell id="pButbFu6PwKA1ap9V0wM-10" value="Check Permission" style="rhombus;whiteSpace=wrap;html=1;" parent="1" vertex="1">
          <mxGeometry x="430" y="260" width="80" height="80" as="geometry" />
        </mxCell>
        <mxCell id="pButbFu6PwKA1ap9V0wM-27" style="edgeStyle=orthogonalEdgeStyle;rounded=0;orthogonalLoop=1;jettySize=auto;html=1;exitX=0.5;exitY=1;exitDx=0;exitDy=0;" parent="1" source="pButbFu6PwKA1ap9V0wM-11" target="pButbFu6PwKA1ap9V0wM-22" edge="1">
          <mxGeometry relative="1" as="geometry" />
        </mxCell>
        <mxCell id="pButbFu6PwKA1ap9V0wM-11" value="Check Permission" style="rhombus;whiteSpace=wrap;html=1;" parent="1" vertex="1">
          <mxGeometry x="560" y="260" width="80" height="80" as="geometry" />
        </mxCell>
        <mxCell id="pButbFu6PwKA1ap9V0wM-30" style="edgeStyle=orthogonalEdgeStyle;rounded=0;orthogonalLoop=1;jettySize=auto;html=1;exitX=0.5;exitY=1;exitDx=0;exitDy=0;entryX=0.5;entryY=0;entryDx=0;entryDy=0;" parent="1" source="pButbFu6PwKA1ap9V0wM-17" target="pButbFu6PwKA1ap9V0wM-28" edge="1">
          <mxGeometry relative="1" as="geometry" />
        </mxCell>
        <mxCell id="pButbFu6PwKA1ap9V0wM-17" value="Manage Pharmacy" style="rounded=1;whiteSpace=wrap;html=1;" parent="1" vertex="1">
          <mxGeometry x="-20" y="390" width="120" height="60" as="geometry" />
        </mxCell>
        <mxCell id="pButbFu6PwKA1ap9V0wM-32" style="edgeStyle=orthogonalEdgeStyle;rounded=0;orthogonalLoop=1;jettySize=auto;html=1;exitX=0.5;exitY=1;exitDx=0;exitDy=0;" parent="1" source="pButbFu6PwKA1ap9V0wM-18" target="pButbFu6PwKA1ap9V0wM-28" edge="1">
          <mxGeometry relative="1" as="geometry" />
        </mxCell>
        <mxCell id="pButbFu6PwKA1ap9V0wM-18" value="Manage Medicine" style="rounded=1;whiteSpace=wrap;html=1;" parent="1" vertex="1">
          <mxGeometry x="120" y="390" width="120" height="60" as="geometry" />
        </mxCell>
        <mxCell id="pButbFu6PwKA1ap9V0wM-33" style="edgeStyle=orthogonalEdgeStyle;rounded=0;orthogonalLoop=1;jettySize=auto;html=1;exitX=0.5;exitY=1;exitDx=0;exitDy=0;" parent="1" source="pButbFu6PwKA1ap9V0wM-20" edge="1">
          <mxGeometry relative="1" as="geometry">
            <mxPoint x="320" y="540" as="targetPoint" />
          </mxGeometry>
        </mxCell>
        <mxCell id="pButbFu6PwKA1ap9V0wM-20" value="Manage Stocks" style="rounded=1;whiteSpace=wrap;html=1;" parent="1" vertex="1">
          <mxGeometry x="260" y="390" width="120" height="60" as="geometry" />
        </mxCell>
        <mxCell id="pButbFu6PwKA1ap9V0wM-34" style="edgeStyle=orthogonalEdgeStyle;rounded=0;orthogonalLoop=1;jettySize=auto;html=1;exitX=0.5;exitY=1;exitDx=0;exitDy=0;entryX=0.5;entryY=0;entryDx=0;entryDy=0;" parent="1" source="pButbFu6PwKA1ap9V0wM-21" target="pButbFu6PwKA1ap9V0wM-28" edge="1">
          <mxGeometry relative="1" as="geometry" />
        </mxCell>
        <mxCell id="pButbFu6PwKA1ap9V0wM-21" value="Manage Company" style="rounded=1;whiteSpace=wrap;html=1;" parent="1" vertex="1">
          <mxGeometry x="410" y="390" width="120" height="60" as="geometry" />
        </mxCell>
        <mxCell id="pButbFu6PwKA1ap9V0wM-35" style="edgeStyle=orthogonalEdgeStyle;rounded=0;orthogonalLoop=1;jettySize=auto;html=1;exitX=0.5;exitY=1;exitDx=0;exitDy=0;entryX=0.5;entryY=0;entryDx=0;entryDy=0;" parent="1" source="pButbFu6PwKA1ap9V0wM-22" target="pButbFu6PwKA1ap9V0wM-28" edge="1">
          <mxGeometry relative="1" as="geometry" />
        </mxCell>
        <mxCell id="pButbFu6PwKA1ap9V0wM-22" value="Manage Inventory" style="rounded=1;whiteSpace=wrap;html=1;" parent="1" vertex="1">
          <mxGeometry x="540" y="390" width="120" height="60" as="geometry" />
        </mxCell>
        <mxCell id="pButbFu6PwKA1ap9V0wM-36" style="edgeStyle=orthogonalEdgeStyle;rounded=0;orthogonalLoop=1;jettySize=auto;html=1;exitX=0.5;exitY=1;exitDx=0;exitDy=0;entryX=0.5;entryY=0;entryDx=0;entryDy=0;" parent="1" source="pButbFu6PwKA1ap9V0wM-28" target="pButbFu6PwKA1ap9V0wM-29" edge="1">
          <mxGeometry relative="1" as="geometry" />
        </mxCell>
        <mxCell id="pButbFu6PwKA1ap9V0wM-28" value="Logout" style="rounded=1;whiteSpace=wrap;html=1;" parent="1" vertex="1">
          <mxGeometry x="260" y="540" width="120" height="60" as="geometry" />
        </mxCell>
        <mxCell id="pButbFu6PwKA1ap9V0wM-29" value="" style="ellipse;html=1;shape=endState;fillColor=#000000;strokeColor=#ff0000;" parent="1" vertex="1">
          <mxGeometry x="305" y="660" width="30" height="30" as="geometry" />
        </mxCell>
      </root>
    </mxGraphModel>
  </diagram>
  <diagram id="qFpUBX009T6gLMoqhPEj" name="Page-2">
    <mxGraphModel dx="1278" dy="556" grid="1" gridSize="10" guides="1" tooltips="1" connect="1" arrows="1" fold="1" page="1" pageScale="1" pageWidth="827" pageHeight="1169" math="0" shadow="0">
      <root>
        <mxCell id="0" />
        <mxCell id="1" parent="0" />
        <mxCell id="SwLlpEWbqtCsFSg5vkq9-5" value="Pharmacy &lt;br&gt;Management &lt;br&gt;System" style="shape=ellipse;html=1;dashed=0;whitespace=wrap;aspect=fixed;perimeter=ellipsePerimeter;" parent="1" vertex="1">
          <mxGeometry x="200" y="180" width="120" height="120" as="geometry" />
        </mxCell>
        <mxCell id="SwLlpEWbqtCsFSg5vkq9-6" value="Medicine Management" style="html=1;dashed=0;whitespace=wrap;" parent="1" vertex="1">
          <mxGeometry x="380" y="100" width="130" height="60" as="geometry" />
        </mxCell>
        <mxCell id="SwLlpEWbqtCsFSg5vkq9-7" value="Pharmacy&lt;br&gt;Management" style="html=1;dashed=0;whitespace=wrap;" parent="1" vertex="1">
          <mxGeometry x="200" y="40" width="120" height="60" as="geometry" />
        </mxCell>
        <mxCell id="SwLlpEWbqtCsFSg5vkq9-8" value="Inventory&lt;br&gt;Management" style="html=1;dashed=0;whitespace=wrap;" parent="1" vertex="1">
          <mxGeometry x="10" y="100" width="120" height="60" as="geometry" />
        </mxCell>
        <mxCell id="SwLlpEWbqtCsFSg5vkq9-9" value="Sales&lt;br&gt;Management" style="html=1;dashed=0;whitespace=wrap;" parent="1" vertex="1">
          <mxGeometry x="10" y="250" width="120" height="60" as="geometry" />
        </mxCell>
        <mxCell id="SwLlpEWbqtCsFSg5vkq9-10" value="Company&lt;br&gt;Management" style="html=1;dashed=0;whitespace=wrap;" parent="1" vertex="1">
          <mxGeometry x="210" y="370" width="110" height="60" as="geometry" />
        </mxCell>
        <mxCell id="SwLlpEWbqtCsFSg5vkq9-12" value="Stock&lt;br&gt;Management" style="html=1;dashed=0;whitespace=wrap;" parent="1" vertex="1">
          <mxGeometry x="393" y="255" width="117" height="55" as="geometry" />
        </mxCell>
        <mxCell id="SwLlpEWbqtCsFSg5vkq9-14" value="" style="endArrow=classic;startArrow=classic;html=1;rounded=0;entryX=0.5;entryY=0;entryDx=0;entryDy=0;" parent="1" source="SwLlpEWbqtCsFSg5vkq9-7" target="SwLlpEWbqtCsFSg5vkq9-5" edge="1">
          <mxGeometry width="50" height="50" relative="1" as="geometry">
            <mxPoint x="260" y="150" as="sourcePoint" />
            <mxPoint x="260" y="170.71067811865476" as="targetPoint" />
          </mxGeometry>
        </mxCell>
        <mxCell id="SwLlpEWbqtCsFSg5vkq9-15" value="" style="endArrow=classic;startArrow=classic;html=1;rounded=0;exitX=1;exitY=1;exitDx=0;exitDy=0;entryX=0.09;entryY=0.197;entryDx=0;entryDy=0;entryPerimeter=0;" parent="1" source="SwLlpEWbqtCsFSg5vkq9-8" target="SwLlpEWbqtCsFSg5vkq9-5" edge="1">
          <mxGeometry width="50" height="50" relative="1" as="geometry">
            <mxPoint x="120" y="210" as="sourcePoint" />
            <mxPoint x="170" y="160" as="targetPoint" />
          </mxGeometry>
        </mxCell>
        <mxCell id="SwLlpEWbqtCsFSg5vkq9-16" value="" style="endArrow=classic;startArrow=classic;html=1;rounded=0;entryX=0.003;entryY=0.657;entryDx=0;entryDy=0;entryPerimeter=0;exitX=1;exitY=0.5;exitDx=0;exitDy=0;" parent="1" source="SwLlpEWbqtCsFSg5vkq9-9" target="SwLlpEWbqtCsFSg5vkq9-5" edge="1">
          <mxGeometry width="50" height="50" relative="1" as="geometry">
            <mxPoint x="130" y="310" as="sourcePoint" />
            <mxPoint x="180" y="260" as="targetPoint" />
          </mxGeometry>
        </mxCell>
        <mxCell id="SwLlpEWbqtCsFSg5vkq9-17" value="" style="endArrow=classic;startArrow=classic;html=1;rounded=0;entryX=0.5;entryY=1;entryDx=0;entryDy=0;" parent="1" target="SwLlpEWbqtCsFSg5vkq9-5" edge="1">
          <mxGeometry width="50" height="50" relative="1" as="geometry">
            <mxPoint x="260" y="370" as="sourcePoint" />
            <mxPoint x="300" y="300" as="targetPoint" />
          </mxGeometry>
        </mxCell>
        <mxCell id="SwLlpEWbqtCsFSg5vkq9-18" value="" style="endArrow=classic;startArrow=classic;html=1;rounded=0;exitX=0.917;exitY=0.25;exitDx=0;exitDy=0;exitPerimeter=0;entryX=-0.028;entryY=0.647;entryDx=0;entryDy=0;entryPerimeter=0;" parent="1" source="SwLlpEWbqtCsFSg5vkq9-5" target="SwLlpEWbqtCsFSg5vkq9-6" edge="1">
          <mxGeometry width="50" height="50" relative="1" as="geometry">
            <mxPoint x="320" y="200" as="sourcePoint" />
            <mxPoint x="370" y="150" as="targetPoint" />
          </mxGeometry>
        </mxCell>
        <mxCell id="SwLlpEWbqtCsFSg5vkq9-19" value="" style="endArrow=classic;startArrow=classic;html=1;rounded=0;entryX=0;entryY=0.5;entryDx=0;entryDy=0;" parent="1" source="SwLlpEWbqtCsFSg5vkq9-5" target="SwLlpEWbqtCsFSg5vkq9-12" edge="1">
          <mxGeometry width="50" height="50" relative="1" as="geometry">
            <mxPoint x="330" y="320" as="sourcePoint" />
            <mxPoint x="380" y="270" as="targetPoint" />
          </mxGeometry>
        </mxCell>
        <mxCell id="LKToIEaxZy_62TxjP-AO-1" value="Context Chart" style="text;html=1;align=center;verticalAlign=middle;resizable=0;points=[];autosize=1;strokeColor=none;fillColor=none;" parent="1" vertex="1">
          <mxGeometry x="205" y="450" width="90" height="20" as="geometry" />
        </mxCell>
        <mxCell id="LKToIEaxZy_62TxjP-AO-2" value="Pharmacy&amp;nbsp;&lt;br&gt;Management&amp;nbsp;&lt;br&gt;System&lt;br&gt;" style="ellipse;whiteSpace=wrap;html=1;aspect=fixed;" parent="1" vertex="1">
          <mxGeometry x="295" y="870" width="80" height="80" as="geometry" />
        </mxCell>
        <mxCell id="LKToIEaxZy_62TxjP-AO-3" value="Pharmacy Management" style="rounded=0;whiteSpace=wrap;html=1;" parent="1" vertex="1">
          <mxGeometry x="60" y="580" width="120" height="60" as="geometry" />
        </mxCell>
        <mxCell id="LKToIEaxZy_62TxjP-AO-4" value="Medicine&amp;nbsp;&lt;br&gt;Management" style="rounded=0;whiteSpace=wrap;html=1;" parent="1" vertex="1">
          <mxGeometry x="60" y="700" width="120" height="60" as="geometry" />
        </mxCell>
        <mxCell id="LKToIEaxZy_62TxjP-AO-5" value="Stocks&lt;br&gt;Management" style="rounded=0;whiteSpace=wrap;html=1;" parent="1" vertex="1">
          <mxGeometry x="60" y="820" width="120" height="60" as="geometry" />
        </mxCell>
        <mxCell id="LKToIEaxZy_62TxjP-AO-6" value="Company&lt;br&gt;Management" style="rounded=0;whiteSpace=wrap;html=1;" parent="1" vertex="1">
          <mxGeometry x="60" y="940" width="120" height="60" as="geometry" />
        </mxCell>
        <mxCell id="LKToIEaxZy_62TxjP-AO-7" value="Inventory&lt;br&gt;Management" style="rounded=0;whiteSpace=wrap;html=1;" parent="1" vertex="1">
          <mxGeometry x="60" y="1060" width="120" height="60" as="geometry" />
        </mxCell>
        <mxCell id="LKToIEaxZy_62TxjP-AO-8" value="Generate Pharmacy Report" style="rounded=0;whiteSpace=wrap;html=1;" parent="1" vertex="1">
          <mxGeometry x="480" y="585" width="120" height="60" as="geometry" />
        </mxCell>
        <mxCell id="LKToIEaxZy_62TxjP-AO-9" value="Generate Medicine Report" style="rounded=0;whiteSpace=wrap;html=1;" parent="1" vertex="1">
          <mxGeometry x="480" y="700" width="120" height="60" as="geometry" />
        </mxCell>
        <mxCell id="LKToIEaxZy_62TxjP-AO-10" value="Generate Stocks Report" style="rounded=0;whiteSpace=wrap;html=1;" parent="1" vertex="1">
          <mxGeometry x="480" y="820" width="120" height="60" as="geometry" />
        </mxCell>
        <mxCell id="LKToIEaxZy_62TxjP-AO-11" value="Generate Company Report" style="rounded=0;whiteSpace=wrap;html=1;" parent="1" vertex="1">
          <mxGeometry x="470" y="940" width="120" height="60" as="geometry" />
        </mxCell>
        <mxCell id="LKToIEaxZy_62TxjP-AO-12" value="Check Sales Details" style="rounded=0;whiteSpace=wrap;html=1;" parent="1" vertex="1">
          <mxGeometry x="480" y="1169" width="120" height="60" as="geometry" />
        </mxCell>
        <mxCell id="LKToIEaxZy_62TxjP-AO-13" value="Sales Management" style="rounded=0;whiteSpace=wrap;html=1;" parent="1" vertex="1">
          <mxGeometry x="60" y="1169" width="120" height="60" as="geometry" />
        </mxCell>
        <mxCell id="LKToIEaxZy_62TxjP-AO-14" value="Generate Inventory Report" style="rounded=0;whiteSpace=wrap;html=1;" parent="1" vertex="1">
          <mxGeometry x="480" y="1060" width="120" height="60" as="geometry" />
        </mxCell>
        <mxCell id="LKToIEaxZy_62TxjP-AO-20" value="" style="endArrow=classic;html=1;rounded=0;exitX=1;exitY=0.5;exitDx=0;exitDy=0;entryX=0.372;entryY=0.038;entryDx=0;entryDy=0;entryPerimeter=0;" parent="1" source="LKToIEaxZy_62TxjP-AO-3" target="LKToIEaxZy_62TxjP-AO-2" edge="1">
          <mxGeometry width="50" height="50" relative="1" as="geometry">
            <mxPoint x="180" y="670" as="sourcePoint" />
            <mxPoint x="230" y="620" as="targetPoint" />
          </mxGeometry>
        </mxCell>
        <mxCell id="LKToIEaxZy_62TxjP-AO-21" value="" style="endArrow=classic;html=1;rounded=0;entryX=0.072;entryY=0.208;entryDx=0;entryDy=0;exitX=1;exitY=0.5;exitDx=0;exitDy=0;entryPerimeter=0;" parent="1" source="LKToIEaxZy_62TxjP-AO-4" target="LKToIEaxZy_62TxjP-AO-2" edge="1">
          <mxGeometry width="50" height="50" relative="1" as="geometry">
            <mxPoint x="180" y="750" as="sourcePoint" />
            <mxPoint x="230" y="700" as="targetPoint" />
          </mxGeometry>
        </mxCell>
        <mxCell id="LKToIEaxZy_62TxjP-AO-22" value="" style="endArrow=classic;html=1;rounded=0;exitX=1;exitY=0.5;exitDx=0;exitDy=0;entryX=0;entryY=0.5;entryDx=0;entryDy=0;" parent="1" source="LKToIEaxZy_62TxjP-AO-5" target="LKToIEaxZy_62TxjP-AO-2" edge="1">
          <mxGeometry width="50" height="50" relative="1" as="geometry">
            <mxPoint x="180" y="870" as="sourcePoint" />
            <mxPoint x="230" y="820" as="targetPoint" />
          </mxGeometry>
        </mxCell>
        <mxCell id="LKToIEaxZy_62TxjP-AO-23" value="" style="endArrow=classic;html=1;rounded=0;exitX=1;exitY=0.5;exitDx=0;exitDy=0;entryX=0.012;entryY=0.667;entryDx=0;entryDy=0;entryPerimeter=0;" parent="1" source="LKToIEaxZy_62TxjP-AO-6" target="LKToIEaxZy_62TxjP-AO-2" edge="1">
          <mxGeometry width="50" height="50" relative="1" as="geometry">
            <mxPoint x="180" y="1000" as="sourcePoint" />
            <mxPoint x="230" y="950" as="targetPoint" />
          </mxGeometry>
        </mxCell>
        <mxCell id="LKToIEaxZy_62TxjP-AO-24" value="" style="endArrow=classic;html=1;rounded=0;exitX=1;exitY=0.5;exitDx=0;exitDy=0;entryX=0;entryY=1;entryDx=0;entryDy=0;" parent="1" source="LKToIEaxZy_62TxjP-AO-7" target="LKToIEaxZy_62TxjP-AO-2" edge="1">
          <mxGeometry width="50" height="50" relative="1" as="geometry">
            <mxPoint x="200" y="1110" as="sourcePoint" />
            <mxPoint x="250" y="1060" as="targetPoint" />
          </mxGeometry>
        </mxCell>
        <mxCell id="LKToIEaxZy_62TxjP-AO-25" value="" style="endArrow=classic;html=1;rounded=0;exitX=1;exitY=0.5;exitDx=0;exitDy=0;entryX=0.342;entryY=0.977;entryDx=0;entryDy=0;entryPerimeter=0;" parent="1" source="LKToIEaxZy_62TxjP-AO-13" target="LKToIEaxZy_62TxjP-AO-2" edge="1">
          <mxGeometry width="50" height="50" relative="1" as="geometry">
            <mxPoint x="200" y="1210" as="sourcePoint" />
            <mxPoint x="250" y="1160" as="targetPoint" />
          </mxGeometry>
        </mxCell>
        <mxCell id="LKToIEaxZy_62TxjP-AO-26" value="" style="endArrow=classic;html=1;rounded=0;exitX=0.652;exitY=0.038;exitDx=0;exitDy=0;exitPerimeter=0;entryX=0;entryY=0.5;entryDx=0;entryDy=0;" parent="1" source="LKToIEaxZy_62TxjP-AO-2" target="LKToIEaxZy_62TxjP-AO-8" edge="1">
          <mxGeometry width="50" height="50" relative="1" as="geometry">
            <mxPoint x="350" y="860" as="sourcePoint" />
            <mxPoint x="400" y="810" as="targetPoint" />
          </mxGeometry>
        </mxCell>
        <mxCell id="LKToIEaxZy_62TxjP-AO-27" value="" style="endArrow=classic;html=1;rounded=0;exitX=1;exitY=0;exitDx=0;exitDy=0;entryX=-0.013;entryY=0.63;entryDx=0;entryDy=0;entryPerimeter=0;" parent="1" source="LKToIEaxZy_62TxjP-AO-2" target="LKToIEaxZy_62TxjP-AO-9" edge="1">
          <mxGeometry width="50" height="50" relative="1" as="geometry">
            <mxPoint x="390" y="890" as="sourcePoint" />
            <mxPoint x="440" y="840" as="targetPoint" />
          </mxGeometry>
        </mxCell>
        <mxCell id="LKToIEaxZy_62TxjP-AO-28" value="" style="endArrow=classic;html=1;rounded=0;exitX=1.022;exitY=0.378;exitDx=0;exitDy=0;exitPerimeter=0;entryX=0;entryY=0.5;entryDx=0;entryDy=0;" parent="1" source="LKToIEaxZy_62TxjP-AO-2" target="LKToIEaxZy_62TxjP-AO-10" edge="1">
          <mxGeometry width="50" height="50" relative="1" as="geometry">
            <mxPoint x="400" y="930" as="sourcePoint" />
            <mxPoint x="450" y="880" as="targetPoint" />
          </mxGeometry>
        </mxCell>
        <mxCell id="LKToIEaxZy_62TxjP-AO-29" value="" style="endArrow=classic;html=1;rounded=0;entryX=0;entryY=0.5;entryDx=0;entryDy=0;exitX=0.938;exitY=0.75;exitDx=0;exitDy=0;exitPerimeter=0;" parent="1" source="LKToIEaxZy_62TxjP-AO-2" target="LKToIEaxZy_62TxjP-AO-11" edge="1">
          <mxGeometry width="50" height="50" relative="1" as="geometry">
            <mxPoint x="380" y="990" as="sourcePoint" />
            <mxPoint x="430" y="940" as="targetPoint" />
          </mxGeometry>
        </mxCell>
        <mxCell id="LKToIEaxZy_62TxjP-AO-30" value="" style="endArrow=classic;html=1;rounded=0;exitX=1;exitY=1;exitDx=0;exitDy=0;entryX=0;entryY=0.5;entryDx=0;entryDy=0;" parent="1" source="LKToIEaxZy_62TxjP-AO-2" target="LKToIEaxZy_62TxjP-AO-14" edge="1">
          <mxGeometry width="50" height="50" relative="1" as="geometry">
            <mxPoint x="390" y="1060" as="sourcePoint" />
            <mxPoint x="440" y="1010" as="targetPoint" />
          </mxGeometry>
        </mxCell>
        <mxCell id="LKToIEaxZy_62TxjP-AO-31" value="" style="endArrow=classic;html=1;rounded=0;exitX=0.682;exitY=1.008;exitDx=0;exitDy=0;exitPerimeter=0;entryX=0;entryY=0.5;entryDx=0;entryDy=0;" parent="1" source="LKToIEaxZy_62TxjP-AO-2" target="LKToIEaxZy_62TxjP-AO-12" edge="1">
          <mxGeometry width="50" height="50" relative="1" as="geometry">
            <mxPoint x="340" y="1100" as="sourcePoint" />
            <mxPoint x="390" y="1050" as="targetPoint" />
          </mxGeometry>
        </mxCell>
      </root>
    </mxGraphModel>
  </diagram>
  <diagram id="lLMzPwCFqpqBeGc-W5w8" name="Page-3">
    <mxGraphModel dx="1337" dy="555" grid="1" gridSize="10" guides="1" tooltips="1" connect="1" arrows="1" fold="1" page="1" pageScale="1" pageWidth="827" pageHeight="1169" math="0" shadow="0">
      <root>
        <mxCell id="0" />
        <mxCell id="1" parent="0" />
        <mxCell id="UTmkuBlDqIRztzk3gJ5E-133" value="" style="rounded=0;whiteSpace=wrap;html=1;" parent="1" vertex="1">
          <mxGeometry x="50" width="800" height="1290" as="geometry" />
        </mxCell>
        <mxCell id="UTmkuBlDqIRztzk3gJ5E-135" value="Shopkeeper" style="shape=umlActor;verticalLabelPosition=bottom;verticalAlign=top;html=1;outlineConnect=0;" parent="1" vertex="1">
          <mxGeometry x="-70" y="330" width="40" height="120" as="geometry" />
        </mxCell>
        <mxCell id="UTmkuBlDqIRztzk3gJ5E-137" value="Login" style="ellipse;whiteSpace=wrap;html=1;" parent="1" vertex="1">
          <mxGeometry x="210" y="50" width="140" height="70" as="geometry" />
        </mxCell>
        <mxCell id="UTmkuBlDqIRztzk3gJ5E-138" value="Add Medicine" style="ellipse;whiteSpace=wrap;html=1;" parent="1" vertex="1">
          <mxGeometry x="310" y="220" width="140" height="70" as="geometry" />
        </mxCell>
        <mxCell id="UTmkuBlDqIRztzk3gJ5E-139" value="Initiate Payment" style="ellipse;whiteSpace=wrap;html=1;" parent="1" vertex="1">
          <mxGeometry x="410" y="370" width="140" height="70" as="geometry" />
        </mxCell>
        <mxCell id="UTmkuBlDqIRztzk3gJ5E-140" value="" style="endArrow=none;html=1;rounded=0;entryX=0;entryY=0.5;entryDx=0;entryDy=0;exitX=0.5;exitY=0;exitDx=0;exitDy=0;exitPerimeter=0;" parent="1" source="UTmkuBlDqIRztzk3gJ5E-135" target="UTmkuBlDqIRztzk3gJ5E-137" edge="1">
          <mxGeometry width="50" height="50" relative="1" as="geometry">
            <mxPoint x="120" y="390" as="sourcePoint" />
            <mxPoint x="440" y="150" as="targetPoint" />
          </mxGeometry>
        </mxCell>
        <mxCell id="UTmkuBlDqIRztzk3gJ5E-142" value="" style="edgeStyle=none;html=1;endArrow=none;verticalAlign=bottom;rounded=0;exitX=1;exitY=0.3333333333333333;exitDx=0;exitDy=0;exitPerimeter=0;entryX=0;entryY=0.5;entryDx=0;entryDy=0;" parent="1" source="UTmkuBlDqIRztzk3gJ5E-135" target="UTmkuBlDqIRztzk3gJ5E-138" edge="1">
          <mxGeometry width="160" relative="1" as="geometry">
            <mxPoint x="330" y="280" as="sourcePoint" />
            <mxPoint x="490" y="280" as="targetPoint" />
            <Array as="points" />
          </mxGeometry>
        </mxCell>
        <mxCell id="UTmkuBlDqIRztzk3gJ5E-143" value="" style="endArrow=none;html=1;rounded=0;entryX=0;entryY=0.5;entryDx=0;entryDy=0;" parent="1" source="UTmkuBlDqIRztzk3gJ5E-135" target="UTmkuBlDqIRztzk3gJ5E-205" edge="1">
          <mxGeometry width="50" height="50" relative="1" as="geometry">
            <mxPoint x="80" y="380" as="sourcePoint" />
            <mxPoint x="430" y="340" as="targetPoint" />
          </mxGeometry>
        </mxCell>
        <mxCell id="UTmkuBlDqIRztzk3gJ5E-144" value="Verify Credentials" style="ellipse;whiteSpace=wrap;html=1;" parent="1" vertex="1">
          <mxGeometry x="430" y="20" width="140" height="70" as="geometry" />
        </mxCell>
        <mxCell id="UTmkuBlDqIRztzk3gJ5E-145" value="Error Login" style="ellipse;whiteSpace=wrap;html=1;" parent="1" vertex="1">
          <mxGeometry x="430" y="110" width="140" height="70" as="geometry" />
        </mxCell>
        <mxCell id="UTmkuBlDqIRztzk3gJ5E-146" value="Cheque Payment" style="ellipse;whiteSpace=wrap;html=1;" parent="1" vertex="1">
          <mxGeometry x="330" y="485" width="140" height="70" as="geometry" />
        </mxCell>
        <mxCell id="UTmkuBlDqIRztzk3gJ5E-147" value="Cash Payment" style="ellipse;whiteSpace=wrap;html=1;" parent="1" vertex="1">
          <mxGeometry x="510" y="485" width="140" height="70" as="geometry" />
        </mxCell>
        <mxCell id="UTmkuBlDqIRztzk3gJ5E-148" value="Draft Pament" style="ellipse;whiteSpace=wrap;html=1;" parent="1" vertex="1">
          <mxGeometry x="410" y="570" width="140" height="70" as="geometry" />
        </mxCell>
        <mxCell id="UTmkuBlDqIRztzk3gJ5E-149" value="" style="edgeStyle=none;html=1;endArrow=block;endFill=0;endSize=12;verticalAlign=bottom;rounded=0;exitX=0.5;exitY=0;exitDx=0;exitDy=0;entryX=0.5;entryY=1;entryDx=0;entryDy=0;" parent="1" source="UTmkuBlDqIRztzk3gJ5E-148" target="UTmkuBlDqIRztzk3gJ5E-139" edge="1">
          <mxGeometry width="160" relative="1" as="geometry">
            <mxPoint x="510" y="350" as="sourcePoint" />
            <mxPoint x="470" y="430" as="targetPoint" />
            <Array as="points" />
          </mxGeometry>
        </mxCell>
        <mxCell id="UTmkuBlDqIRztzk3gJ5E-150" value="" style="edgeStyle=none;html=1;endArrow=block;endFill=0;endSize=12;verticalAlign=bottom;rounded=0;exitX=0.5;exitY=0;exitDx=0;exitDy=0;entryX=0.5;entryY=1;entryDx=0;entryDy=0;" parent="1" source="UTmkuBlDqIRztzk3gJ5E-147" target="UTmkuBlDqIRztzk3gJ5E-139" edge="1">
          <mxGeometry width="160" relative="1" as="geometry">
            <mxPoint x="520" y="460" as="sourcePoint" />
            <mxPoint x="470" y="430" as="targetPoint" />
            <Array as="points">
              <mxPoint x="580" y="470" />
              <mxPoint x="480" y="470" />
            </Array>
          </mxGeometry>
        </mxCell>
        <mxCell id="UTmkuBlDqIRztzk3gJ5E-151" value="" style="edgeStyle=none;html=1;endArrow=block;endFill=0;endSize=12;verticalAlign=bottom;rounded=0;exitX=0.5;exitY=0;exitDx=0;exitDy=0;entryX=0.5;entryY=1;entryDx=0;entryDy=0;" parent="1" source="UTmkuBlDqIRztzk3gJ5E-146" target="UTmkuBlDqIRztzk3gJ5E-139" edge="1">
          <mxGeometry width="160" relative="1" as="geometry">
            <mxPoint x="330" y="460" as="sourcePoint" />
            <mxPoint x="470" y="430" as="targetPoint" />
            <Array as="points">
              <mxPoint x="400" y="470" />
              <mxPoint x="480" y="470" />
            </Array>
          </mxGeometry>
        </mxCell>
        <mxCell id="UTmkuBlDqIRztzk3gJ5E-159" value="" style="endArrow=none;html=1;rounded=0;exitX=1;exitY=0.5;exitDx=0;exitDy=0;" parent="1" source="UTmkuBlDqIRztzk3gJ5E-139" target="UTmkuBlDqIRztzk3gJ5E-218" edge="1">
          <mxGeometry width="50" height="50" relative="1" as="geometry">
            <mxPoint x="390" y="590" as="sourcePoint" />
            <mxPoint x="1080" y="459.2735042735044" as="targetPoint" />
          </mxGeometry>
        </mxCell>
        <mxCell id="UTmkuBlDqIRztzk3gJ5E-160" value="Error during Payment" style="ellipse;whiteSpace=wrap;html=1;" parent="1" vertex="1">
          <mxGeometry x="650" y="420" width="120" height="80" as="geometry" />
        </mxCell>
        <mxCell id="UTmkuBlDqIRztzk3gJ5E-180" value="Generate Sales Details" style="ellipse;whiteSpace=wrap;html=1;" parent="1" vertex="1">
          <mxGeometry x="410" y="680" width="140" height="70" as="geometry" />
        </mxCell>
        <mxCell id="UTmkuBlDqIRztzk3gJ5E-181" value="Generate Medicine Stock Report" style="ellipse;whiteSpace=wrap;html=1;" parent="1" vertex="1">
          <mxGeometry x="410" y="780" width="140" height="70" as="geometry" />
        </mxCell>
        <mxCell id="UTmkuBlDqIRztzk3gJ5E-182" value="" style="edgeStyle=none;html=1;endArrow=none;verticalAlign=bottom;rounded=0;entryX=0;entryY=0.5;entryDx=0;entryDy=0;" parent="1" source="UTmkuBlDqIRztzk3gJ5E-135" target="UTmkuBlDqIRztzk3gJ5E-180" edge="1">
          <mxGeometry width="160" relative="1" as="geometry">
            <mxPoint x="50" y="480" as="sourcePoint" />
            <mxPoint x="620" y="800" as="targetPoint" />
          </mxGeometry>
        </mxCell>
        <mxCell id="UTmkuBlDqIRztzk3gJ5E-183" value="" style="edgeStyle=none;html=1;endArrow=none;verticalAlign=bottom;rounded=0;entryX=0;entryY=0.5;entryDx=0;entryDy=0;" parent="1" source="UTmkuBlDqIRztzk3gJ5E-135" target="UTmkuBlDqIRztzk3gJ5E-181" edge="1">
          <mxGeometry width="160" relative="1" as="geometry">
            <mxPoint x="460" y="800" as="sourcePoint" />
            <mxPoint x="620" y="800" as="targetPoint" />
          </mxGeometry>
        </mxCell>
        <mxCell id="UTmkuBlDqIRztzk3gJ5E-188" value="&amp;lt;&amp;lt;include&amp;gt;&amp;gt;" style="edgeStyle=none;html=1;endArrow=open;verticalAlign=bottom;dashed=1;labelBackgroundColor=none;rounded=0;exitX=1;exitY=0.5;exitDx=0;exitDy=0;entryX=0;entryY=0.5;entryDx=0;entryDy=0;" parent="1" source="UTmkuBlDqIRztzk3gJ5E-137" target="UTmkuBlDqIRztzk3gJ5E-144" edge="1">
          <mxGeometry width="160" relative="1" as="geometry">
            <mxPoint x="450" y="290" as="sourcePoint" />
            <mxPoint x="610" y="290" as="targetPoint" />
          </mxGeometry>
        </mxCell>
        <mxCell id="UTmkuBlDqIRztzk3gJ5E-189" value="&amp;lt;&amp;lt;extend&amp;gt;&amp;gt;" style="edgeStyle=none;html=1;startArrow=open;endArrow=none;startSize=12;verticalAlign=bottom;dashed=1;labelBackgroundColor=none;rounded=0;exitX=0.966;exitY=0.686;exitDx=0;exitDy=0;exitPerimeter=0;entryX=0;entryY=0.5;entryDx=0;entryDy=0;" parent="1" source="UTmkuBlDqIRztzk3gJ5E-137" target="UTmkuBlDqIRztzk3gJ5E-145" edge="1">
          <mxGeometry width="160" relative="1" as="geometry">
            <mxPoint x="450" y="290" as="sourcePoint" />
            <mxPoint x="610" y="290" as="targetPoint" />
          </mxGeometry>
        </mxCell>
        <mxCell id="UTmkuBlDqIRztzk3gJ5E-191" value="&amp;lt;&amp;lt;extend&amp;gt;&amp;gt;" style="edgeStyle=none;html=1;startArrow=open;endArrow=none;startSize=12;verticalAlign=bottom;dashed=1;labelBackgroundColor=none;rounded=0;exitX=1;exitY=1;exitDx=0;exitDy=0;" parent="1" source="UTmkuBlDqIRztzk3gJ5E-139" target="UTmkuBlDqIRztzk3gJ5E-160" edge="1">
          <mxGeometry x="0.118" y="7" width="160" relative="1" as="geometry">
            <mxPoint x="610" y="520" as="sourcePoint" />
            <mxPoint x="770" y="520" as="targetPoint" />
            <mxPoint as="offset" />
          </mxGeometry>
        </mxCell>
        <mxCell id="UTmkuBlDqIRztzk3gJ5E-205" value="Sell Medicine" style="ellipse;whiteSpace=wrap;html=1;" parent="1" vertex="1">
          <mxGeometry x="200" y="400" width="140" height="70" as="geometry" />
        </mxCell>
        <mxCell id="UTmkuBlDqIRztzk3gJ5E-206" value="" style="edgeStyle=none;html=1;endArrow=none;verticalAlign=bottom;rounded=0;entryX=0;entryY=0.5;entryDx=0;entryDy=0;exitX=1;exitY=0.5;exitDx=0;exitDy=0;" parent="1" source="UTmkuBlDqIRztzk3gJ5E-205" target="UTmkuBlDqIRztzk3gJ5E-139" edge="1">
          <mxGeometry width="160" relative="1" as="geometry">
            <mxPoint x="310" y="570" as="sourcePoint" />
            <mxPoint x="470" y="570" as="targetPoint" />
          </mxGeometry>
        </mxCell>
        <mxCell id="UTmkuBlDqIRztzk3gJ5E-209" value="Generate Expired Stock Report" style="ellipse;whiteSpace=wrap;html=1;" parent="1" vertex="1">
          <mxGeometry x="414" y="880" width="140" height="70" as="geometry" />
        </mxCell>
        <mxCell id="UTmkuBlDqIRztzk3gJ5E-210" value="" style="edgeStyle=none;html=1;endArrow=none;verticalAlign=bottom;rounded=0;entryX=0;entryY=0.5;entryDx=0;entryDy=0;" parent="1" source="UTmkuBlDqIRztzk3gJ5E-135" target="UTmkuBlDqIRztzk3gJ5E-209" edge="1">
          <mxGeometry width="160" relative="1" as="geometry">
            <mxPoint x="50" y="940" as="sourcePoint" />
            <mxPoint x="210" y="940" as="targetPoint" />
          </mxGeometry>
        </mxCell>
        <mxCell id="UTmkuBlDqIRztzk3gJ5E-211" value="Owner" style="shape=umlActor;verticalLabelPosition=bottom;verticalAlign=top;html=1;outlineConnect=0;" parent="1" vertex="1">
          <mxGeometry x="-110" y="980" width="50" height="130" as="geometry" />
        </mxCell>
        <mxCell id="UTmkuBlDqIRztzk3gJ5E-212" value="Add/Update/Delete&lt;br&gt;Vendor&amp;nbsp;" style="ellipse;whiteSpace=wrap;html=1;" parent="1" vertex="1">
          <mxGeometry x="160" y="930" width="120" height="80" as="geometry" />
        </mxCell>
        <mxCell id="UTmkuBlDqIRztzk3gJ5E-213" value="" style="edgeStyle=none;html=1;endArrow=none;verticalAlign=bottom;rounded=0;exitX=0;exitY=0.5;exitDx=0;exitDy=0;entryX=0.5;entryY=0;entryDx=0;entryDy=0;entryPerimeter=0;" parent="1" source="UTmkuBlDqIRztzk3gJ5E-212" target="UTmkuBlDqIRztzk3gJ5E-211" edge="1">
          <mxGeometry width="160" relative="1" as="geometry">
            <mxPoint x="110" y="1260" as="sourcePoint" />
            <mxPoint x="270" y="1260" as="targetPoint" />
          </mxGeometry>
        </mxCell>
        <mxCell id="UTmkuBlDqIRztzk3gJ5E-214" value="View Staff&lt;br&gt;&amp;nbsp;Information" style="ellipse;whiteSpace=wrap;html=1;" parent="1" vertex="1">
          <mxGeometry x="170" y="1140" width="140" height="70" as="geometry" />
        </mxCell>
        <mxCell id="UTmkuBlDqIRztzk3gJ5E-215" value="" style="edgeStyle=none;html=1;endArrow=none;verticalAlign=bottom;rounded=0;exitX=0;exitY=0.5;exitDx=0;exitDy=0;entryX=1;entryY=1;entryDx=0;entryDy=0;entryPerimeter=0;" parent="1" source="UTmkuBlDqIRztzk3gJ5E-214" target="UTmkuBlDqIRztzk3gJ5E-211" edge="1">
          <mxGeometry width="160" relative="1" as="geometry">
            <mxPoint x="110" y="1340" as="sourcePoint" />
            <mxPoint x="270" y="1340" as="targetPoint" />
          </mxGeometry>
        </mxCell>
        <mxCell id="UTmkuBlDqIRztzk3gJ5E-216" value="Add/Remove Staff" style="ellipse;whiteSpace=wrap;html=1;" parent="1" vertex="1">
          <mxGeometry x="140" y="1020" width="140" height="70" as="geometry" />
        </mxCell>
        <mxCell id="UTmkuBlDqIRztzk3gJ5E-217" value="" style="edgeStyle=none;html=1;endArrow=none;verticalAlign=bottom;rounded=0;exitX=0;exitY=0.5;exitDx=0;exitDy=0;entryX=1;entryY=0.3333333333333333;entryDx=0;entryDy=0;entryPerimeter=0;" parent="1" source="UTmkuBlDqIRztzk3gJ5E-216" target="UTmkuBlDqIRztzk3gJ5E-211" edge="1">
          <mxGeometry width="160" relative="1" as="geometry">
            <mxPoint x="110" y="1040" as="sourcePoint" />
            <mxPoint x="460" y="1280" as="targetPoint" />
            <Array as="points" />
          </mxGeometry>
        </mxCell>
        <mxCell id="UTmkuBlDqIRztzk3gJ5E-218" value="System" style="shape=umlActor;html=1;verticalLabelPosition=bottom;verticalAlign=top;align=center;" parent="1" vertex="1">
          <mxGeometry x="1030" y="160" width="100" height="140" as="geometry" />
        </mxCell>
        <mxCell id="UTmkuBlDqIRztzk3gJ5E-219" value="" style="edgeStyle=none;html=1;endArrow=none;verticalAlign=bottom;rounded=0;entryX=0;entryY=0.3333333333333333;entryDx=0;entryDy=0;entryPerimeter=0;" parent="1" source="UTmkuBlDqIRztzk3gJ5E-138" target="UTmkuBlDqIRztzk3gJ5E-218" edge="1">
          <mxGeometry width="160" relative="1" as="geometry">
            <mxPoint x="480" y="310" as="sourcePoint" />
            <mxPoint x="640" y="310" as="targetPoint" />
          </mxGeometry>
        </mxCell>
        <mxCell id="UTmkuBlDqIRztzk3gJ5E-220" value="" style="edgeStyle=none;html=1;endArrow=none;verticalAlign=bottom;rounded=0;exitX=1;exitY=0.5;exitDx=0;exitDy=0;entryX=0;entryY=1;entryDx=0;entryDy=0;entryPerimeter=0;" parent="1" source="UTmkuBlDqIRztzk3gJ5E-180" target="UTmkuBlDqIRztzk3gJ5E-218" edge="1">
          <mxGeometry width="160" relative="1" as="geometry">
            <mxPoint x="410" y="690" as="sourcePoint" />
            <mxPoint x="570" y="690" as="targetPoint" />
          </mxGeometry>
        </mxCell>
        <mxCell id="UTmkuBlDqIRztzk3gJ5E-221" value="" style="edgeStyle=none;html=1;endArrow=none;verticalAlign=bottom;rounded=0;exitX=1;exitY=0.5;exitDx=0;exitDy=0;" parent="1" source="UTmkuBlDqIRztzk3gJ5E-181" edge="1">
          <mxGeometry width="160" relative="1" as="geometry">
            <mxPoint x="620" y="790" as="sourcePoint" />
            <mxPoint x="1070" y="320" as="targetPoint" />
          </mxGeometry>
        </mxCell>
        <mxCell id="UTmkuBlDqIRztzk3gJ5E-222" value="" style="edgeStyle=none;html=1;endArrow=none;verticalAlign=bottom;rounded=0;exitX=1;exitY=0.5;exitDx=0;exitDy=0;entryX=1;entryY=1;entryDx=0;entryDy=0;entryPerimeter=0;" parent="1" source="UTmkuBlDqIRztzk3gJ5E-209" target="UTmkuBlDqIRztzk3gJ5E-218" edge="1">
          <mxGeometry width="160" relative="1" as="geometry">
            <mxPoint x="550" y="910" as="sourcePoint" />
            <mxPoint x="710" y="910" as="targetPoint" />
          </mxGeometry>
        </mxCell>
      </root>
    </mxGraphModel>
  </diagram>
  <diagram id="nOdprY5s0mfrZkxO-eZL" name="Page-4">
    <mxGraphModel dx="510" dy="555" grid="1" gridSize="10" guides="1" tooltips="1" connect="1" arrows="1" fold="1" page="1" pageScale="1" pageWidth="827" pageHeight="1169" math="0" shadow="0">
      <root>
        <mxCell id="0" />
        <mxCell id="1" parent="0" />
        <mxCell id="Ehec-wgfQYLrHo-Yimqd-1" value="Shopkeeper" style="shape=umlLifeline;participant=umlActor;perimeter=lifelinePerimeter;whiteSpace=wrap;html=1;container=1;collapsible=0;recursiveResize=0;verticalAlign=top;spacingTop=36;outlineConnect=0;" parent="1" vertex="1">
          <mxGeometry x="60" width="60" height="940" as="geometry" />
        </mxCell>
        <mxCell id="Ehec-wgfQYLrHo-Yimqd-17" value="dispatch" style="html=1;verticalAlign=bottom;endArrow=block;rounded=0;" parent="Ehec-wgfQYLrHo-Yimqd-1" target="Ehec-wgfQYLrHo-Yimqd-5" edge="1">
          <mxGeometry width="80" relative="1" as="geometry">
            <mxPoint x="30" y="80" as="sourcePoint" />
            <mxPoint x="110" y="80" as="targetPoint" />
          </mxGeometry>
        </mxCell>
        <mxCell id="Ehec-wgfQYLrHo-Yimqd-5" value="Login" style="shape=umlLifeline;perimeter=lifelinePerimeter;whiteSpace=wrap;html=1;container=1;collapsible=0;recursiveResize=0;outlineConnect=0;" parent="1" vertex="1">
          <mxGeometry x="200" width="100" height="930" as="geometry" />
        </mxCell>
        <mxCell id="Ehec-wgfQYLrHo-Yimqd-26" value="Manage Medicine Details" style="html=1;verticalAlign=bottom;endArrow=block;rounded=0;" parent="Ehec-wgfQYLrHo-Yimqd-5" target="Ehec-wgfQYLrHo-Yimqd-14" edge="1">
          <mxGeometry width="80" relative="1" as="geometry">
            <mxPoint x="50" y="280" as="sourcePoint" />
            <mxPoint x="130" y="280" as="targetPoint" />
          </mxGeometry>
        </mxCell>
        <mxCell id="Ehec-wgfQYLrHo-Yimqd-40" value="Manage Stock Details" style="html=1;verticalAlign=bottom;endArrow=block;rounded=0;" parent="Ehec-wgfQYLrHo-Yimqd-5" target="Ehec-wgfQYLrHo-Yimqd-15" edge="1">
          <mxGeometry width="80" relative="1" as="geometry">
            <mxPoint x="50" y="410" as="sourcePoint" />
            <mxPoint x="130" y="410" as="targetPoint" />
          </mxGeometry>
        </mxCell>
        <mxCell id="GCzJUe3o0H06BNs_1TBN-17" value="Manage Vendor Details" style="html=1;verticalAlign=bottom;endArrow=block;rounded=0;" parent="Ehec-wgfQYLrHo-Yimqd-5" target="Ehec-wgfQYLrHo-Yimqd-16" edge="1">
          <mxGeometry width="80" relative="1" as="geometry">
            <mxPoint x="50" y="520" as="sourcePoint" />
            <mxPoint x="130" y="520" as="targetPoint" />
          </mxGeometry>
        </mxCell>
        <mxCell id="GCzJUe3o0H06BNs_1TBN-23" value="Manage Inventory Details" style="html=1;verticalAlign=bottom;endArrow=block;rounded=0;" parent="Ehec-wgfQYLrHo-Yimqd-5" target="GCzJUe3o0H06BNs_1TBN-19" edge="1">
          <mxGeometry width="80" relative="1" as="geometry">
            <mxPoint x="50" y="660" as="sourcePoint" />
            <mxPoint x="130" y="660" as="targetPoint" />
          </mxGeometry>
        </mxCell>
        <mxCell id="Ehec-wgfQYLrHo-Yimqd-13" value="Pharmacy Maanagement" style="shape=umlLifeline;perimeter=lifelinePerimeter;whiteSpace=wrap;html=1;container=1;collapsible=0;recursiveResize=0;outlineConnect=0;" parent="1" vertex="1">
          <mxGeometry x="363.5" width="100" height="930" as="geometry" />
        </mxCell>
        <mxCell id="Ehec-wgfQYLrHo-Yimqd-19" value="" style="html=1;points=[];perimeter=orthogonalPerimeter;" parent="Ehec-wgfQYLrHo-Yimqd-13" vertex="1">
          <mxGeometry x="45.5" y="80" width="10" height="40" as="geometry" />
        </mxCell>
        <mxCell id="Ehec-wgfQYLrHo-Yimqd-20" value="Add/Delete&amp;nbsp;&lt;br&gt;Medicinr" style="edgeStyle=orthogonalEdgeStyle;html=1;align=left;spacingLeft=2;endArrow=block;rounded=0;entryX=1;entryY=0;" parent="Ehec-wgfQYLrHo-Yimqd-13" target="Ehec-wgfQYLrHo-Yimqd-19" edge="1">
          <mxGeometry x="0.3301" y="16" relative="1" as="geometry">
            <mxPoint x="50.5" y="60" as="sourcePoint" />
            <Array as="points">
              <mxPoint x="80.5" y="60" />
            </Array>
            <mxPoint y="1" as="offset" />
          </mxGeometry>
        </mxCell>
        <mxCell id="Ehec-wgfQYLrHo-Yimqd-22" value="" style="html=1;points=[];perimeter=orthogonalPerimeter;" parent="Ehec-wgfQYLrHo-Yimqd-13" vertex="1">
          <mxGeometry x="44.5" y="150" width="10" height="80" as="geometry" />
        </mxCell>
        <mxCell id="Ehec-wgfQYLrHo-Yimqd-25" value="Save/Update&amp;nbsp;&lt;br&gt;Meddicines" style="edgeStyle=orthogonalEdgeStyle;html=1;align=left;spacingLeft=2;endArrow=block;rounded=0;entryX=1;entryY=0;" parent="Ehec-wgfQYLrHo-Yimqd-13" edge="1">
          <mxGeometry relative="1" as="geometry">
            <mxPoint x="50.5" y="230" as="sourcePoint" />
            <Array as="points">
              <mxPoint x="80.5" y="230" />
            </Array>
            <mxPoint x="55.5" y="250" as="targetPoint" />
          </mxGeometry>
        </mxCell>
        <mxCell id="GCzJUe3o0H06BNs_1TBN-26" value="List/Delete&lt;br&gt;Medicines" style="edgeStyle=orthogonalEdgeStyle;html=1;align=left;spacingLeft=2;endArrow=block;rounded=0;entryX=1;entryY=0;" parent="Ehec-wgfQYLrHo-Yimqd-13" edge="1">
          <mxGeometry relative="1" as="geometry">
            <mxPoint x="50.5" y="720" as="sourcePoint" />
            <Array as="points">
              <mxPoint x="80.5" y="720" />
            </Array>
            <mxPoint x="55.5" y="740" as="targetPoint" />
          </mxGeometry>
        </mxCell>
        <mxCell id="Ehec-wgfQYLrHo-Yimqd-14" value="Medicine Management" style="shape=umlLifeline;perimeter=lifelinePerimeter;whiteSpace=wrap;html=1;container=1;collapsible=0;recursiveResize=0;outlineConnect=0;" parent="1" vertex="1">
          <mxGeometry x="550" width="100" height="940" as="geometry" />
        </mxCell>
        <mxCell id="Ehec-wgfQYLrHo-Yimqd-29" value="" style="html=1;points=[];perimeter=orthogonalPerimeter;" parent="Ehec-wgfQYLrHo-Yimqd-14" vertex="1">
          <mxGeometry x="45" y="270" width="10" height="60" as="geometry" />
        </mxCell>
        <mxCell id="Ehec-wgfQYLrHo-Yimqd-35" value="List/Delete&lt;br&gt;Medicine" style="edgeStyle=orthogonalEdgeStyle;html=1;align=left;spacingLeft=2;endArrow=block;rounded=0;entryX=1;entryY=0;" parent="Ehec-wgfQYLrHo-Yimqd-14" edge="1">
          <mxGeometry relative="1" as="geometry">
            <mxPoint x="45" y="320" as="sourcePoint" />
            <Array as="points">
              <mxPoint x="75" y="320" />
            </Array>
            <mxPoint x="50" y="340" as="targetPoint" />
          </mxGeometry>
        </mxCell>
        <mxCell id="Ehec-wgfQYLrHo-Yimqd-37" value="Add/Edit&lt;br&gt;Medicine" style="edgeStyle=orthogonalEdgeStyle;html=1;align=left;spacingLeft=2;endArrow=block;rounded=0;entryX=1;entryY=0;" parent="Ehec-wgfQYLrHo-Yimqd-14" edge="1">
          <mxGeometry relative="1" as="geometry">
            <mxPoint x="45" y="70" as="sourcePoint" />
            <Array as="points">
              <mxPoint x="75" y="70" />
            </Array>
            <mxPoint x="50" y="90" as="targetPoint" />
          </mxGeometry>
        </mxCell>
        <mxCell id="Ehec-wgfQYLrHo-Yimqd-39" value="Save/Update&lt;br&gt;Medicine" style="edgeStyle=orthogonalEdgeStyle;html=1;align=left;spacingLeft=2;endArrow=block;rounded=0;entryX=1;entryY=0;" parent="Ehec-wgfQYLrHo-Yimqd-14" edge="1">
          <mxGeometry relative="1" as="geometry">
            <mxPoint x="45" y="150" as="sourcePoint" />
            <Array as="points">
              <mxPoint x="75" y="150" />
            </Array>
            <mxPoint x="50" y="170" as="targetPoint" />
          </mxGeometry>
        </mxCell>
        <mxCell id="Ehec-wgfQYLrHo-Yimqd-15" value="Stock Management" style="shape=umlLifeline;perimeter=lifelinePerimeter;whiteSpace=wrap;html=1;container=1;collapsible=0;recursiveResize=0;outlineConnect=0;" parent="1" vertex="1">
          <mxGeometry x="727" width="100" height="940" as="geometry" />
        </mxCell>
        <mxCell id="Ehec-wgfQYLrHo-Yimqd-41" value="" style="html=1;points=[];perimeter=orthogonalPerimeter;" parent="Ehec-wgfQYLrHo-Yimqd-15" vertex="1">
          <mxGeometry x="45" y="400" width="10" height="80" as="geometry" />
        </mxCell>
        <mxCell id="Ehec-wgfQYLrHo-Yimqd-47" value="Add/Edit&lt;br&gt;Stock" style="edgeStyle=orthogonalEdgeStyle;html=1;align=left;spacingLeft=2;endArrow=block;rounded=0;entryX=1;entryY=0;" parent="Ehec-wgfQYLrHo-Yimqd-15" edge="1">
          <mxGeometry relative="1" as="geometry">
            <mxPoint x="44" y="80" as="sourcePoint" />
            <Array as="points">
              <mxPoint x="74" y="80" />
            </Array>
            <mxPoint x="49" y="100" as="targetPoint" />
          </mxGeometry>
        </mxCell>
        <mxCell id="GCzJUe3o0H06BNs_1TBN-2" value="Save/Update&lt;br&gt;Stock" style="edgeStyle=orthogonalEdgeStyle;html=1;align=left;spacingLeft=2;endArrow=block;rounded=0;entryX=1;entryY=0;" parent="Ehec-wgfQYLrHo-Yimqd-15" edge="1">
          <mxGeometry relative="1" as="geometry">
            <mxPoint x="45" y="150" as="sourcePoint" />
            <Array as="points">
              <mxPoint x="75" y="150" />
            </Array>
            <mxPoint x="50" y="170" as="targetPoint" />
          </mxGeometry>
        </mxCell>
        <mxCell id="GCzJUe3o0H06BNs_1TBN-4" value="List/Delete&lt;br&gt;Stock" style="edgeStyle=orthogonalEdgeStyle;html=1;align=left;spacingLeft=2;endArrow=block;rounded=0;entryX=1;entryY=0;" parent="Ehec-wgfQYLrHo-Yimqd-15" edge="1">
          <mxGeometry relative="1" as="geometry">
            <mxPoint x="45" y="210" as="sourcePoint" />
            <Array as="points">
              <mxPoint x="75" y="210" />
            </Array>
            <mxPoint x="50" y="230" as="targetPoint" />
          </mxGeometry>
        </mxCell>
        <mxCell id="Ehec-wgfQYLrHo-Yimqd-16" value="Vendor Management" style="shape=umlLifeline;perimeter=lifelinePerimeter;whiteSpace=wrap;html=1;container=1;collapsible=0;recursiveResize=0;outlineConnect=0;" parent="1" vertex="1">
          <mxGeometry x="910" width="100" height="930" as="geometry" />
        </mxCell>
        <mxCell id="GCzJUe3o0H06BNs_1TBN-18" value="" style="html=1;points=[];perimeter=orthogonalPerimeter;" parent="Ehec-wgfQYLrHo-Yimqd-16" vertex="1">
          <mxGeometry x="45" y="505" width="10" height="80" as="geometry" />
        </mxCell>
        <mxCell id="Ehec-wgfQYLrHo-Yimqd-18" value="Manage Pharmacy" style="html=1;verticalAlign=bottom;endArrow=block;rounded=0;" parent="1" source="Ehec-wgfQYLrHo-Yimqd-5" target="Ehec-wgfQYLrHo-Yimqd-13" edge="1">
          <mxGeometry width="80" relative="1" as="geometry">
            <mxPoint x="250" y="120" as="sourcePoint" />
            <mxPoint x="330" y="120" as="targetPoint" />
            <Array as="points">
              <mxPoint x="310" y="160" />
            </Array>
          </mxGeometry>
        </mxCell>
        <mxCell id="GCzJUe3o0H06BNs_1TBN-14" value="Add/Edit&lt;br&gt;Vendor" style="edgeStyle=orthogonalEdgeStyle;html=1;align=left;spacingLeft=2;endArrow=block;rounded=0;entryX=1;entryY=0;" parent="1" edge="1">
          <mxGeometry relative="1" as="geometry">
            <mxPoint x="950" y="70" as="sourcePoint" />
            <Array as="points">
              <mxPoint x="980" y="70" />
            </Array>
            <mxPoint x="955" y="90" as="targetPoint" />
          </mxGeometry>
        </mxCell>
        <mxCell id="GCzJUe3o0H06BNs_1TBN-15" value="Save/Update&lt;br&gt;Vendor" style="edgeStyle=orthogonalEdgeStyle;html=1;align=left;spacingLeft=2;endArrow=block;rounded=0;entryX=1;entryY=0;" parent="1" edge="1">
          <mxGeometry relative="1" as="geometry">
            <mxPoint x="951" y="140" as="sourcePoint" />
            <Array as="points">
              <mxPoint x="981" y="140" />
            </Array>
            <mxPoint x="956" y="160" as="targetPoint" />
          </mxGeometry>
        </mxCell>
        <mxCell id="GCzJUe3o0H06BNs_1TBN-16" value="List/Delete&lt;br&gt;Vendor" style="edgeStyle=orthogonalEdgeStyle;html=1;align=left;spacingLeft=2;endArrow=block;rounded=0;entryX=1;entryY=0;" parent="1" edge="1">
          <mxGeometry relative="1" as="geometry">
            <mxPoint x="951" y="200" as="sourcePoint" />
            <Array as="points">
              <mxPoint x="981" y="200" />
            </Array>
            <mxPoint x="956" y="220" as="targetPoint" />
          </mxGeometry>
        </mxCell>
        <mxCell id="GCzJUe3o0H06BNs_1TBN-19" value="Inventory&amp;nbsp;&lt;br&gt;management" style="shape=umlLifeline;perimeter=lifelinePerimeter;whiteSpace=wrap;html=1;container=1;collapsible=0;recursiveResize=0;outlineConnect=0;" parent="1" vertex="1">
          <mxGeometry x="1080" width="100" height="940" as="geometry" />
        </mxCell>
        <mxCell id="GCzJUe3o0H06BNs_1TBN-24" value="" style="html=1;points=[];perimeter=orthogonalPerimeter;" parent="GCzJUe3o0H06BNs_1TBN-19" vertex="1">
          <mxGeometry x="45" y="650" width="10" height="80" as="geometry" />
        </mxCell>
        <mxCell id="GCzJUe3o0H06BNs_1TBN-20" value="Add/Edit&lt;br&gt;Inventory" style="edgeStyle=orthogonalEdgeStyle;html=1;align=left;spacingLeft=2;endArrow=block;rounded=0;entryX=1;entryY=0;" parent="1" edge="1">
          <mxGeometry relative="1" as="geometry">
            <mxPoint x="1119.9999999999998" y="70" as="sourcePoint" />
            <Array as="points">
              <mxPoint x="1150" y="70" />
            </Array>
            <mxPoint x="1124.9999999999998" y="90" as="targetPoint" />
          </mxGeometry>
        </mxCell>
        <mxCell id="GCzJUe3o0H06BNs_1TBN-21" value="Save/Update&lt;br&gt;Inventory" style="edgeStyle=orthogonalEdgeStyle;html=1;align=left;spacingLeft=2;endArrow=block;rounded=0;entryX=1;entryY=0;" parent="1" edge="1">
          <mxGeometry relative="1" as="geometry">
            <mxPoint x="1121.0000000000002" y="140" as="sourcePoint" />
            <Array as="points">
              <mxPoint x="1151" y="140" />
            </Array>
            <mxPoint x="1126.0000000000002" y="160" as="targetPoint" />
          </mxGeometry>
        </mxCell>
        <mxCell id="GCzJUe3o0H06BNs_1TBN-22" value="List/Delete&lt;br&gt;Inventory" style="edgeStyle=orthogonalEdgeStyle;html=1;align=left;spacingLeft=2;endArrow=block;rounded=0;entryX=1;entryY=0;" parent="1" edge="1">
          <mxGeometry relative="1" as="geometry">
            <mxPoint x="1121.0000000000002" y="200" as="sourcePoint" />
            <Array as="points">
              <mxPoint x="1151" y="200" />
            </Array>
            <mxPoint x="1126.0000000000002" y="220" as="targetPoint" />
          </mxGeometry>
        </mxCell>
      </root>
    </mxGraphModel>
  </diagram>
  <diagram id="b0cv8Phb4UAvN_htGVK2" name="Page-5">
    <mxGraphModel dx="2105" dy="556" grid="1" gridSize="10" guides="1" tooltips="1" connect="1" arrows="1" fold="1" page="1" pageScale="1" pageWidth="827" pageHeight="1169" math="0" shadow="0">
      <root>
        <mxCell id="0" />
        <mxCell id="1" parent="0" />
        <mxCell id="2U7w6xV_rr2k35voAG-h-14" style="edgeStyle=orthogonalEdgeStyle;rounded=0;orthogonalLoop=1;jettySize=auto;html=1;exitX=0.5;exitY=1;exitDx=0;exitDy=0;entryX=0.5;entryY=0;entryDx=0;entryDy=0;" edge="1" parent="1" source="2U7w6xV_rr2k35voAG-h-2" target="2U7w6xV_rr2k35voAG-h-5">
          <mxGeometry relative="1" as="geometry" />
        </mxCell>
        <mxCell id="2U7w6xV_rr2k35voAG-h-15" style="edgeStyle=orthogonalEdgeStyle;rounded=0;orthogonalLoop=1;jettySize=auto;html=1;exitX=0.5;exitY=1;exitDx=0;exitDy=0;entryX=0.5;entryY=0;entryDx=0;entryDy=0;" edge="1" parent="1" source="2U7w6xV_rr2k35voAG-h-2" target="2U7w6xV_rr2k35voAG-h-3">
          <mxGeometry relative="1" as="geometry" />
        </mxCell>
        <mxCell id="2U7w6xV_rr2k35voAG-h-16" style="edgeStyle=orthogonalEdgeStyle;rounded=0;orthogonalLoop=1;jettySize=auto;html=1;exitX=0.5;exitY=1;exitDx=0;exitDy=0;entryX=0.5;entryY=0;entryDx=0;entryDy=0;" edge="1" parent="1" source="2U7w6xV_rr2k35voAG-h-2" target="2U7w6xV_rr2k35voAG-h-4">
          <mxGeometry relative="1" as="geometry" />
        </mxCell>
        <mxCell id="2U7w6xV_rr2k35voAG-h-17" style="edgeStyle=orthogonalEdgeStyle;rounded=0;orthogonalLoop=1;jettySize=auto;html=1;exitX=0.5;exitY=1;exitDx=0;exitDy=0;" edge="1" parent="1" source="2U7w6xV_rr2k35voAG-h-2" target="2U7w6xV_rr2k35voAG-h-10">
          <mxGeometry relative="1" as="geometry" />
        </mxCell>
        <mxCell id="2U7w6xV_rr2k35voAG-h-2" value="Login" style="whiteSpace=wrap;html=1;aspect=fixed;" vertex="1" parent="1">
          <mxGeometry x="374" width="80" height="80" as="geometry" />
        </mxCell>
        <mxCell id="2U7w6xV_rr2k35voAG-h-20" style="edgeStyle=orthogonalEdgeStyle;rounded=0;orthogonalLoop=1;jettySize=auto;html=1;exitX=0.5;exitY=1;exitDx=0;exitDy=0;entryX=0.5;entryY=0;entryDx=0;entryDy=0;" edge="1" parent="1" source="2U7w6xV_rr2k35voAG-h-3" target="2U7w6xV_rr2k35voAG-h-8">
          <mxGeometry relative="1" as="geometry" />
        </mxCell>
        <mxCell id="2U7w6xV_rr2k35voAG-h-3" value="Manage Medicine" style="whiteSpace=wrap;html=1;aspect=fixed;" vertex="1" parent="1">
          <mxGeometry x="260" y="220" width="80" height="80" as="geometry" />
        </mxCell>
        <mxCell id="2U7w6xV_rr2k35voAG-h-21" style="edgeStyle=orthogonalEdgeStyle;rounded=0;orthogonalLoop=1;jettySize=auto;html=1;exitX=0.5;exitY=1;exitDx=0;exitDy=0;entryX=0.5;entryY=0;entryDx=0;entryDy=0;" edge="1" parent="1" source="2U7w6xV_rr2k35voAG-h-4" target="2U7w6xV_rr2k35voAG-h-9">
          <mxGeometry relative="1" as="geometry" />
        </mxCell>
        <mxCell id="2U7w6xV_rr2k35voAG-h-4" value="Manage Vendor" style="whiteSpace=wrap;html=1;aspect=fixed;" vertex="1" parent="1">
          <mxGeometry x="460" y="220" width="80" height="80" as="geometry" />
        </mxCell>
        <mxCell id="2U7w6xV_rr2k35voAG-h-18" style="edgeStyle=orthogonalEdgeStyle;rounded=0;orthogonalLoop=1;jettySize=auto;html=1;exitX=0.5;exitY=1;exitDx=0;exitDy=0;entryX=0.5;entryY=0;entryDx=0;entryDy=0;" edge="1" parent="1" source="2U7w6xV_rr2k35voAG-h-5" target="2U7w6xV_rr2k35voAG-h-12">
          <mxGeometry relative="1" as="geometry" />
        </mxCell>
        <mxCell id="2U7w6xV_rr2k35voAG-h-19" style="edgeStyle=orthogonalEdgeStyle;rounded=0;orthogonalLoop=1;jettySize=auto;html=1;exitX=0.5;exitY=1;exitDx=0;exitDy=0;entryX=0.5;entryY=0;entryDx=0;entryDy=0;" edge="1" parent="1" source="2U7w6xV_rr2k35voAG-h-5" target="2U7w6xV_rr2k35voAG-h-6">
          <mxGeometry relative="1" as="geometry" />
        </mxCell>
        <mxCell id="2U7w6xV_rr2k35voAG-h-5" value="Sell Medicine" style="whiteSpace=wrap;html=1;aspect=fixed;" vertex="1" parent="1">
          <mxGeometry x="80" y="220" width="80" height="80" as="geometry" />
        </mxCell>
        <mxCell id="2U7w6xV_rr2k35voAG-h-23" style="edgeStyle=orthogonalEdgeStyle;rounded=0;orthogonalLoop=1;jettySize=auto;html=1;exitX=0.5;exitY=1;exitDx=0;exitDy=0;entryX=0.5;entryY=0;entryDx=0;entryDy=0;" edge="1" parent="1" source="2U7w6xV_rr2k35voAG-h-6" target="2U7w6xV_rr2k35voAG-h-7">
          <mxGeometry relative="1" as="geometry" />
        </mxCell>
        <mxCell id="2U7w6xV_rr2k35voAG-h-6" value="Payment&amp;nbsp;" style="whiteSpace=wrap;html=1;aspect=fixed;" vertex="1" parent="1">
          <mxGeometry x="80" y="360" width="80" height="80" as="geometry" />
        </mxCell>
        <mxCell id="2U7w6xV_rr2k35voAG-h-7" value="Generate Receipt" style="whiteSpace=wrap;html=1;aspect=fixed;" vertex="1" parent="1">
          <mxGeometry x="80" y="490" width="80" height="80" as="geometry" />
        </mxCell>
        <mxCell id="2U7w6xV_rr2k35voAG-h-8" value="Generate Medicines&lt;br&gt;Report" style="whiteSpace=wrap;html=1;aspect=fixed;" vertex="1" parent="1">
          <mxGeometry x="260" y="360" width="80" height="80" as="geometry" />
        </mxCell>
        <mxCell id="2U7w6xV_rr2k35voAG-h-9" value="Generate&lt;br&gt;Vendor&lt;br&gt;Report" style="whiteSpace=wrap;html=1;aspect=fixed;" vertex="1" parent="1">
          <mxGeometry x="460" y="360" width="80" height="80" as="geometry" />
        </mxCell>
        <mxCell id="2U7w6xV_rr2k35voAG-h-22" style="edgeStyle=orthogonalEdgeStyle;rounded=0;orthogonalLoop=1;jettySize=auto;html=1;exitX=0.5;exitY=1;exitDx=0;exitDy=0;" edge="1" parent="1" source="2U7w6xV_rr2k35voAG-h-10" target="2U7w6xV_rr2k35voAG-h-11">
          <mxGeometry relative="1" as="geometry">
            <Array as="points">
              <mxPoint x="682" y="340" />
              <mxPoint x="682" y="340" />
            </Array>
          </mxGeometry>
        </mxCell>
        <mxCell id="2U7w6xV_rr2k35voAG-h-25" style="edgeStyle=orthogonalEdgeStyle;rounded=0;orthogonalLoop=1;jettySize=auto;html=1;exitX=0.5;exitY=1;exitDx=0;exitDy=0;entryX=0.5;entryY=0;entryDx=0;entryDy=0;" edge="1" parent="1" source="2U7w6xV_rr2k35voAG-h-10" target="2U7w6xV_rr2k35voAG-h-24">
          <mxGeometry relative="1" as="geometry" />
        </mxCell>
        <mxCell id="2U7w6xV_rr2k35voAG-h-10" value="Manage Stocks&lt;br&gt;Report" style="whiteSpace=wrap;html=1;aspect=fixed;" vertex="1" parent="1">
          <mxGeometry x="642" y="220" width="80" height="80" as="geometry" />
        </mxCell>
        <mxCell id="2U7w6xV_rr2k35voAG-h-11" value="Generate Stock Report" style="whiteSpace=wrap;html=1;aspect=fixed;" vertex="1" parent="1">
          <mxGeometry x="640" y="360" width="80" height="80" as="geometry" />
        </mxCell>
        <mxCell id="2U7w6xV_rr2k35voAG-h-12" value="Update Stocks" style="whiteSpace=wrap;html=1;aspect=fixed;" vertex="1" parent="1">
          <mxGeometry x="-40" y="360" width="80" height="80" as="geometry" />
        </mxCell>
        <mxCell id="2U7w6xV_rr2k35voAG-h-24" value="Generate Expired &lt;br&gt;Stock" style="whiteSpace=wrap;html=1;aspect=fixed;" vertex="1" parent="1">
          <mxGeometry x="747" y="360" width="80" height="80" as="geometry" />
        </mxCell>
      </root>
    </mxGraphModel>
  </diagram>
</mxfile>
